<?xml version="1.0" encoding="us-ascii" standalone="no"?><svg xmlns="http://www.w3.org/2000/svg" xmlns:xlink="http://www.w3.org/1999/xlink" contentStyleType="text/css" height="637px" preserveAspectRatio="none" style="width:1135px;height:637px;background:#FFFFFF;" version="1.1" viewBox="0 0 1135 637" width="1135px" zoomAndPan="magnify"><defs/><g><!--cluster CF World--><g id="cluster_CF World"><rect fill="none" height="299.89" rx="2.5" ry="2.5" style="stroke:#181818;stroke-width:1.0;" width="430" x="682.5" y="174.57"/><path d="M757.5,174.57 L757.5,184.0583 L747.5,194.0583 L682.5,194.0583 " fill="none" style="stroke:#181818;stroke-width:1.0;"/><text fill="#000000" font-family="sans-serif" font-size="14" font-weight="bold" lengthAdjust="spacing" textLength="65" x="685.5" y="189.1052">CF World</text></g><!--class Field--><g id="elem_Field"><rect codeLine="34" fill="#F5FFFA" height="81.5977" id="Field" rx="2.5" ry="2.5" style="stroke:#000000;stroke-width:0.5;" width="102" x="799.5" y="209.57"/><rect fill="#708090" height="40.6211" rx="2.5" ry="2.5" style="stroke:#708090;stroke-width:0.5;" width="102" x="799.5" y="209.57"/><rect fill="#708090" height="2.5" style="stroke:#708090;stroke-width:0.5;" width="102" x="799.5" y="247.6911"/><rect codeLine="34" fill="none" height="81.5977" id="Field" rx="2.5" ry="2.5" style="stroke:#000000;stroke-width:0.5;" width="102" x="799.5" y="209.57"/><text fill="#FFFFFF" font-family="sans-serif" font-size="12" font-style="italic" lengthAdjust="spacing" textLength="80" x="810.5" y="226.1716">&#171;CF-Concept&#187;</text><text fill="#FFFFFF" font-family="sans-serif" font-size="14" font-weight="bold" lengthAdjust="spacing" textLength="35" x="833" y="242.238">Field</text><line style="stroke:#000000;stroke-width:0.5;" x1="800.5" x2="900.5" y1="250.1911" y2="250.1911"/><text fill="#000000" font-family="sans-serif" font-size="14" lengthAdjust="spacing" textLength="90" x="805.5" y="267.7263">+CF-Domain</text><text fill="#000000" font-family="sans-serif" font-size="14" lengthAdjust="spacing" textLength="67" x="805.5" y="284.2145">+Variable</text></g><!--class Data--><g id="elem_Data"><rect codeLine="38" fill="#F5FFFA" height="81.5977" id="Data" rx="2.5" ry="2.5" style="stroke:#000000;stroke-width:0.5;" width="77" x="698" y="376.86"/><rect fill="#708090" height="40.6211" rx="2.5" ry="2.5" style="stroke:#708090;stroke-width:0.5;" width="77" x="698" y="376.86"/><rect fill="#708090" height="2.5" style="stroke:#708090;stroke-width:0.5;" width="77" x="698" y="414.9811"/><rect codeLine="38" fill="none" height="81.5977" id="Data" rx="2.5" ry="2.5" style="stroke:#000000;stroke-width:0.5;" width="77" x="698" y="376.86"/><text fill="#FFFFFF" font-family="sans-serif" font-size="12" font-style="italic" lengthAdjust="spacing" textLength="59" x="707" y="393.4616">&#171;abstract&#187;</text><text fill="#FFFFFF" font-family="sans-serif" font-size="14" font-weight="bold" lengthAdjust="spacing" textLength="33" x="720" y="409.528">Data</text><line style="stroke:#000000;stroke-width:0.5;" x1="699" x2="774" y1="417.4811" y2="417.4811"/><text fill="#000000" font-family="sans-serif" font-size="14" lengthAdjust="spacing" textLength="63" x="704" y="435.0163">Not in DB</text><text fill="#000000" font-family="sans-serif" font-size="14" lengthAdjust="spacing" textLength="65" x="704" y="451.5045">obviously</text></g><!--class Domain--><g id="elem_Domain"><rect codeLine="43" fill="#F5FFFA" height="65.1094" id="Domain" rx="2.5" ry="2.5" style="stroke:#000000;stroke-width:0.5;" width="82" x="809.5" y="385.1"/><rect fill="#708090" height="40.6211" rx="2.5" ry="2.5" style="stroke:#708090;stroke-width:0.5;" width="82" x="809.5" y="385.1"/><rect fill="#708090" height="2.5" style="stroke:#708090;stroke-width:0.5;" width="82" x="809.5" y="423.2211"/><rect codeLine="43" fill="none" height="65.1094" id="Domain" rx="2.5" ry="2.5" style="stroke:#000000;stroke-width:0.5;" width="82" x="809.5" y="385.1"/><text fill="#FFFFFF" font-family="sans-serif" font-size="12" font-style="italic" lengthAdjust="spacing" textLength="80" x="810.5" y="401.7016">&#171;CF-Concept&#187;</text><text fill="#FFFFFF" font-family="sans-serif" font-size="14" font-weight="bold" lengthAdjust="spacing" textLength="56" x="822.5" y="417.768">Domain</text><line style="stroke:#000000;stroke-width:0.5;" x1="810.5" x2="890.5" y1="425.7211" y2="425.7211"/><text fill="#000000" font-family="sans-serif" font-size="14" lengthAdjust="spacing" textLength="63" x="815.5" y="443.2563">Not in DB</text></g><!--class BM--><g id="elem_BM"><rect codeLine="47" fill="#F5FFFA" height="75.4648" id="BM" rx="2.5" ry="2.5" style="stroke:#000000;stroke-width:0.5;" width="170" x="926.5" y="379.93"/><rect fill="#708090" height="26.4883" rx="2.5" ry="2.5" style="stroke:#708090;stroke-width:0.5;" width="170" x="926.5" y="379.93"/><rect fill="#708090" height="2.5" style="stroke:#708090;stroke-width:0.5;" width="170" x="926.5" y="403.9183"/><rect codeLine="47" fill="none" height="75.4648" id="BM" rx="2.5" ry="2.5" style="stroke:#000000;stroke-width:0.5;" width="170" x="926.5" y="379.93"/><text fill="#FFFFFF" font-family="sans-serif" font-size="14" font-weight="bold" lengthAdjust="spacing" textLength="74" x="974.5" y="398.4652">Properties</text><line style="stroke:#000000;stroke-width:0.5;" x1="927.5" x2="1095.5" y1="406.4183" y2="406.4183"/><text fill="#000000" font-family="sans-serif" font-size="14" lengthAdjust="spacing" textLength="158" x="932.5" y="423.9534">+Science (B) Properties</text><line style="stroke:#000000;stroke-width:0.5;" x1="927.5" x2="1095.5" y1="430.9066" y2="430.9066"/><text fill="#000000" font-family="sans-serif" font-size="14" lengthAdjust="spacing" textLength="135" x="932.5" y="448.4417">(Represented in DB)</text></g><!--class AgFile--><g id="elem_AgFile"><rect codeLine="72" fill="#F5FFFA" height="114.5742" id="AgFile" rx="2.5" ry="2.5" style="stroke:#000000;stroke-width:0.5;" width="368" x="266.5" y="7"/><rect fill="#708090" height="40.6211" rx="2.5" ry="2.5" style="stroke:#708090;stroke-width:0.5;" width="368" x="266.5" y="7"/><rect fill="#708090" height="2.5" style="stroke:#708090;stroke-width:0.5;" width="368" x="266.5" y="45.1211"/><rect codeLine="72" fill="none" height="114.5742" id="AgFile" rx="2.5" ry="2.5" style="stroke:#000000;stroke-width:0.5;" width="368" x="266.5" y="7"/><text fill="#FFFFFF" font-family="sans-serif" font-size="12" font-style="italic" lengthAdjust="spacing" textLength="31" x="435" y="23.6016">&#171;File&#187;</text><text fill="#FFFFFF" font-family="sans-serif" font-size="14" font-weight="bold" lengthAdjust="spacing" textLength="119" x="391" y="39.668">Aggregation File</text><line style="stroke:#000000;stroke-width:0.5;" x1="267.5" x2="633.5" y1="47.6211" y2="47.6211"/><text fill="#000000" font-family="sans-serif" font-size="14" lengthAdjust="spacing" textLength="356" x="272.5" y="65.1563">+Coordinates for Aggregated Domain (A-Metadata)</text><text fill="#000000" font-family="sans-serif" font-size="14" lengthAdjust="spacing" textLength="324" x="272.5" y="81.6445">+Common (B-) metadata from atomic datasets.</text><text fill="#000000" font-family="sans-serif" font-size="14" lengthAdjust="spacing" textLength="356" x="272.5" y="98.1328">+Coordinates for Aggregated Domain (A-Metadata)</text><text fill="#000000" font-family="sans-serif" font-size="14" lengthAdjust="spacing" textLength="324" x="272.5" y="114.6211">+Common (B-) metadata from atomic datasets.</text></g><!--class TimeDomain--><g id="elem_TimeDomain"><rect codeLine="53" fill="#F5FFFA" height="114.5742" id="TimeDomain" rx="2.5" ry="2.5" style="stroke:#000000;stroke-width:0.5;" width="252" x="679.5" y="515.95"/><rect fill="#708090" height="40.6211" rx="2.5" ry="2.5" style="stroke:#708090;stroke-width:0.5;" width="252" x="679.5" y="515.95"/><rect fill="#708090" height="2.5" style="stroke:#708090;stroke-width:0.5;" width="252" x="679.5" y="554.0711"/><rect codeLine="53" fill="none" height="114.5742" id="TimeDomain" rx="2.5" ry="2.5" style="stroke:#000000;stroke-width:0.5;" width="252" x="679.5" y="515.95"/><text fill="#FFFFFF" font-family="sans-serif" font-size="12" font-style="italic" lengthAdjust="spacing" textLength="82" x="764.5" y="532.5516">&#171;DB-Concept&#187;</text><text fill="#FFFFFF" font-family="sans-serif" font-size="14" font-weight="bold" lengthAdjust="spacing" textLength="93" x="759" y="548.618">TimeDomain</text><line style="stroke:#000000;stroke-width:0.5;" x1="680.5" x2="930.5" y1="556.5711" y2="556.5711"/><text fill="#000000" font-family="sans-serif" font-size="14" lengthAdjust="spacing" textLength="62" x="685.5" y="574.1063">+Bounds</text><text fill="#000000" font-family="sans-serif" font-size="14" lengthAdjust="spacing" textLength="116" x="685.5" y="590.5945">+Calendar, Units</text><text fill="#000000" font-family="sans-serif" font-size="14" lengthAdjust="spacing" textLength="130" x="685.5" y="607.0828">+Sampling Interval</text><text fill="#000000" font-family="sans-serif" font-size="14" lengthAdjust="spacing" textLength="240" x="685.5" y="623.5711">+Sampling Type (time cell method)</text></g><!--class SpatialDomain--><g id="elem_SpatialDomain"><rect codeLine="61" fill="#F5FFFA" height="98.0859" id="SpatialDomain" rx="2.5" ry="2.5" style="stroke:#000000;stroke-width:0.5;" width="162" x="966.5" y="524.19"/><rect fill="#708090" height="40.6211" rx="2.5" ry="2.5" style="stroke:#708090;stroke-width:0.5;" width="162" x="966.5" y="524.19"/><rect fill="#708090" height="2.5" style="stroke:#708090;stroke-width:0.5;" width="162" x="966.5" y="562.3111"/><rect codeLine="61" fill="none" height="98.0859" id="SpatialDomain" rx="2.5" ry="2.5" style="stroke:#000000;stroke-width:0.5;" width="162" x="966.5" y="524.19"/><text fill="#FFFFFF" font-family="sans-serif" font-size="12" font-style="italic" lengthAdjust="spacing" textLength="82" x="1006.5" y="540.7916">&#171;DB-Concept&#187;</text><text fill="#FFFFFF" font-family="sans-serif" font-size="14" font-weight="bold" lengthAdjust="spacing" textLength="105" x="995" y="556.858">SpatialDomain</text><line style="stroke:#000000;stroke-width:0.5;" x1="967.5" x2="1127.5" y1="564.8111" y2="564.8111"/><text fill="#000000" font-family="sans-serif" font-size="14" lengthAdjust="spacing" textLength="50" x="972.5" y="582.3462">+Name</text><text fill="#000000" font-family="sans-serif" font-size="14" lengthAdjust="spacing" textLength="126" x="972.5" y="598.8345">+x,y,z dimensions</text><text fill="#000000" font-family="sans-serif" font-size="14" lengthAdjust="spacing" textLength="150" x="972.5" y="615.3228">+Spatial Cell Methods</text></g><!--class atomic--><g id="elem_atomic"><rect codeLine="78" fill="#F5FFFA" height="81.5977" id="atomic" rx="2.5" ry="2.5" style="stroke:#000000;stroke-width:0.5;" width="320" x="113.5" y="218.37"/><rect fill="#708090" height="40.6211" rx="2.5" ry="2.5" style="stroke:#708090;stroke-width:0.5;" width="320" x="113.5" y="218.37"/><rect fill="#708090" height="2.5" style="stroke:#708090;stroke-width:0.5;" width="320" x="113.5" y="256.4911"/><rect codeLine="78" fill="none" height="81.5977" id="atomic" rx="2.5" ry="2.5" style="stroke:#000000;stroke-width:0.5;" width="320" x="113.5" y="218.37"/><text fill="#FFFFFF" font-family="sans-serif" font-size="12" font-style="italic" lengthAdjust="spacing" textLength="57" x="245" y="234.9716">&#171;concept&#187;</text><text fill="#FFFFFF" font-family="sans-serif" font-size="14" font-weight="bold" lengthAdjust="spacing" textLength="111" x="218" y="251.038">Atomic Dataset</text><line style="stroke:#000000;stroke-width:0.5;" x1="114.5" x2="432.5" y1="258.9911" y2="258.9911"/><text fill="#000000" font-family="sans-serif" font-size="14" lengthAdjust="spacing" textLength="274" x="119.5" y="276.5263">+Coordinate metadata spans fragments</text><text fill="#000000" font-family="sans-serif" font-size="14" lengthAdjust="spacing" textLength="308" x="119.5" y="293.0145">+Includes B-metadata common to fragments</text></g><!--class quark--><g id="elem_quark"><rect codeLine="82" fill="#F5FFFA" height="114.5742" id="quark" rx="2.5" ry="2.5" style="stroke:#000000;stroke-width:0.5;" width="311" x="7" y="360.37"/><rect fill="#708090" height="40.6211" rx="2.5" ry="2.5" style="stroke:#708090;stroke-width:0.5;" width="311" x="7" y="360.37"/><rect fill="#708090" height="2.5" style="stroke:#708090;stroke-width:0.5;" width="311" x="7" y="398.4911"/><rect codeLine="82" fill="none" height="114.5742" id="quark" rx="2.5" ry="2.5" style="stroke:#000000;stroke-width:0.5;" width="311" x="7" y="360.37"/><text fill="#FFFFFF" font-family="sans-serif" font-size="12" font-style="italic" lengthAdjust="spacing" textLength="57" x="134" y="376.9716">&#171;concept&#187;</text><text fill="#FFFFFF" font-family="sans-serif" font-size="14" font-weight="bold" lengthAdjust="spacing" textLength="104" x="110.5" y="393.038">Quark Dataset</text><line style="stroke:#000000;stroke-width:0.5;" x1="8" x2="317" y1="400.9911" y2="400.9911"/><text fill="#000000" font-family="sans-serif" font-size="14" lengthAdjust="spacing" textLength="299" x="13" y="418.5263">+Hyperslab across one or more dimensions</text><text fill="#000000" font-family="sans-serif" font-size="14" lengthAdjust="spacing" textLength="185" x="13" y="435.0145">+All fragments resident on</text><text fill="#000000" font-family="sans-serif" font-size="14" lengthAdjust="spacing" textLength="215" x="13" y="451.5028">one storage element or needed</text><text fill="#000000" font-family="sans-serif" font-size="14" lengthAdjust="spacing" textLength="238" x="13" y="467.9911">in memory to resolve a calculation.</text></g><!--class file--><g id="elem_file"><rect codeLine="89" fill="#F5FFFA" height="81.5977" id="file" rx="2.5" ry="2.5" style="stroke:#000000;stroke-width:0.5;" width="319" x="228" y="541.23"/><rect fill="#708090" height="40.6211" rx="2.5" ry="2.5" style="stroke:#708090;stroke-width:0.5;" width="319" x="228" y="541.23"/><rect fill="#708090" height="2.5" style="stroke:#708090;stroke-width:0.5;" width="319" x="228" y="579.3511"/><rect codeLine="89" fill="none" height="81.5977" id="file" rx="2.5" ry="2.5" style="stroke:#000000;stroke-width:0.5;" width="319" x="228" y="541.23"/><text fill="#FFFFFF" font-family="sans-serif" font-size="12" font-style="italic" lengthAdjust="spacing" textLength="31" x="372" y="557.8316">&#171;File&#187;</text><text fill="#FFFFFF" font-family="sans-serif" font-size="14" font-weight="bold" lengthAdjust="spacing" textLength="68" x="353.5" y="573.898">Fragment</text><line style="stroke:#000000;stroke-width:0.5;" x1="229" x2="546" y1="581.8511" y2="581.8511"/><text fill="#000000" font-family="sans-serif" font-size="14" lengthAdjust="spacing" textLength="295" x="234" y="599.3863">+Resident on one or more storage systems</text><text fill="#000000" font-family="sans-serif" font-size="14" lengthAdjust="spacing" textLength="307" x="234" y="615.8745">+Includes data and normal science metadata</text></g><!--class Variable--><g id="elem_Variable"><rect codeLine="94" fill="#F5FFFA" height="65.1094" id="Variable" rx="2.5" ry="2.5" style="stroke:#000000;stroke-width:0.5;" width="180" x="760.5" y="31.79"/><rect fill="#708090" height="40.6211" rx="2.5" ry="2.5" style="stroke:#708090;stroke-width:0.5;" width="180" x="760.5" y="31.79"/><rect fill="#708090" height="2.5" style="stroke:#708090;stroke-width:0.5;" width="180" x="760.5" y="69.9111"/><rect codeLine="94" fill="none" height="65.1094" id="Variable" rx="2.5" ry="2.5" style="stroke:#000000;stroke-width:0.5;" width="180" x="760.5" y="31.79"/><text fill="#FFFFFF" font-family="sans-serif" font-size="12" font-style="italic" lengthAdjust="spacing" textLength="82" x="809.5" y="48.3916">&#171;DB-Concept&#187;</text><text fill="#FFFFFF" font-family="sans-serif" font-size="14" font-weight="bold" lengthAdjust="spacing" textLength="59" x="821" y="64.458">Variable</text><line style="stroke:#000000;stroke-width:0.5;" x1="761.5" x2="939.5" y1="72.4111" y2="72.4111"/><text fill="#000000" font-family="sans-serif" font-size="14" lengthAdjust="spacing" textLength="168" x="766.5" y="89.9462">Representation of a field</text></g><!--link AgFile to file--><g id="link_AgFile_file"><path codeLine="99" d="M457.8357,133.9843 C464.9757,215.6043 470.26,358.02 433.5,482.46 C427.55,502.59 420.7872,501.1598 412.0072,518.7698 " fill="none" id="AgFile-file" style="stroke:#000000;stroke-width:1.0;"/><polygon fill="none" points="456.79,122.03,453.3281,128.3558,457.8357,133.9843,461.2977,127.6586,456.79,122.03" style="stroke:#000000;stroke-width:1.0;"/><polygon fill="#000000" points="409.33,524.1395,416.9255,517.8698,411.561,519.6648,409.766,514.3003,409.33,524.1395" style="stroke:#000000;stroke-width:1.0;"/><text fill="#000000" font-family="sans-serif" font-size="13" lengthAdjust="spacing" textLength="57" x="461.5" y="336.9384">points to</text></g><!--link AgFile to atomic--><g id="link_AgFile_atomic"><path codeLine="100" d="M398.59,121.91 C370.13,152.96 339.594,168.9562 314.014,196.8662 " fill="none" id="AgFile-to-atomic" style="stroke:#000000;stroke-width:1.0;"/><polygon fill="#000000" points="309.96,201.2895,318.9898,197.3572,313.3383,197.6034,313.0921,191.9519,309.96,201.2895" style="stroke:#000000;stroke-width:1.0;"/><text fill="#000000" font-family="sans-serif" font-size="13" lengthAdjust="spacing" textLength="54" x="379.5" y="155.1384">contains</text></g><!--link atomic to Field--><g id="link_atomic_Field"><path codeLine="102" d="M433.44,287.58 C499.39,295.73 576.68,300.69 646.5,293.37 C699.17,287.85 752.4753,275.9797 793.2653,265.5997 " fill="none" id="atomic-to-Field" style="stroke:#000000;stroke-width:1.0;"/><polygon fill="#000000" points="799.08,264.12,789.3715,262.4631,794.2344,265.3531,791.3444,270.216,799.08,264.12" style="stroke:#000000;stroke-width:1.0;"/><text fill="#000000" font-family="sans-serif" font-size="13" lengthAdjust="spacing" textLength="50" x="595.5" y="289.9384">stores a</text></g><!--link Field to Data--><g id="link_Field_Data"><path codeLine="103" d="M816.088,301.2591 C798.298,327.0591 785.4672,345.6713 767.6472,371.5013 " fill="none" id="Field-Data" style="stroke:#000000;stroke-width:1.0;"/><polygon fill="#000000" points="822.9,291.38,816.201,294.0489,816.088,301.2591,822.787,298.5902,822.9,291.38" style="stroke:#000000;stroke-width:1.0;"/><polygon fill="#000000" points="764.24,376.44,772.6433,371.3034,767.0793,372.3244,766.0583,366.7604,764.24,376.44" style="stroke:#000000;stroke-width:1.0;"/></g><!--link Field to BM--><g id="link_Field_BM"><path codeLine="104" d="M897.8425,299.9766 C923.9925,326.8266 945.6435,349.042 971.1835,375.262 " fill="none" id="Field-BM" style="stroke:#000000;stroke-width:1.0;"/><polygon fill="none" points="889.47,291.38,890.7907,298.4691,897.8425,299.9766,896.5218,292.8875,889.47,291.38" style="stroke:#000000;stroke-width:1.0;"/><polygon fill="#000000" points="975.37,379.56,971.9555,370.322,971.8812,375.9783,966.2248,375.904,975.37,379.56" style="stroke:#000000;stroke-width:1.0;"/></g><!--link Field to Domain--><g id="link_Field_Domain"><path codeLine="105" d="M850.5,303.38 C850.5,332.05 850.5,352.13 850.5,378.75 " fill="none" id="Field-Domain" style="stroke:#000000;stroke-width:1.0;"/><polygon fill="#000000" points="850.5,291.38,846.5,297.38,850.5,303.38,854.5,297.38,850.5,291.38" style="stroke:#000000;stroke-width:1.0;"/><polygon fill="#000000" points="850.5,384.75,854.5,375.75,850.5,379.75,846.5,375.75,850.5,384.75" style="stroke:#000000;stroke-width:1.0;"/></g><!--link Domain to TimeDomain--><g id="link_Domain_TimeDomain"><path codeLine="106" d="M837.8049,461.9956 C832.2949,480.7956 830.217,487.8821 823.777,509.8621 " fill="none" id="Domain-TimeDomain" style="stroke:#000000;stroke-width:1.0;"/><polygon fill="none" points="841.18,450.48,835.6539,455.1128,837.8049,461.9956,843.331,457.3628,841.18,450.48" style="stroke:#000000;stroke-width:1.0;"/><polygon fill="#000000" points="822.09,515.62,828.4592,508.1078,823.4959,510.8217,820.7819,505.8584,822.09,515.62" style="stroke:#000000;stroke-width:1.0;"/></g><!--link Domain to SpatialDomain--><g id="link_Domain_SpatialDomain"><path codeLine="107" d="M885.3142,459.5846 C894.9442,470.2446 898.2,472.93 909.5,482.46 C926.98,497.2 941.9982,508.1913 961.2782,520.8813 " fill="none" id="Domain-SpatialDomain" style="stroke:#000000;stroke-width:1.0;"/><polygon fill="none" points="877.27,450.68,878.3239,457.8137,885.3142,459.5846,884.2603,452.4509,877.27,450.68" style="stroke:#000000;stroke-width:1.0;"/><polygon fill="#000000" points="966.29,524.18,960.9714,515.8907,962.1135,521.431,956.5731,522.5731,966.29,524.18" style="stroke:#000000;stroke-width:1.0;"/></g><!--link atomic to file--><g id="link_atomic_file"><path codeLine="109" d="M308.2871,309.1575 C320.1771,327.0675 326.66,339.05 335.5,360.37 C360.62,420.96 374.1375,472.9208 381.1675,518.1008 " fill="none" id="atomic-file" style="stroke:#000000;stroke-width:1.0;"/><polygon fill="none" points="301.65,299.16,301.636,306.3711,308.2871,309.1575,308.301,301.9464,301.65,299.16" style="stroke:#000000;stroke-width:1.0;"/><polygon fill="#000000" points="382.09,524.0295,384.6587,514.5215,381.3213,519.0889,376.7538,515.7515,382.09,524.0295" style="stroke:#000000;stroke-width:1.0;"/><text fill="#000000" font-family="sans-serif" font-size="13" lengthAdjust="spacing" textLength="45" x="376" y="407.7284">may be</text><text fill="#000000" font-family="sans-serif" font-size="13" lengthAdjust="spacing" textLength="52" x="372.5" y="423.0389">multiple</text><text fill="#000000" font-family="sans-serif" font-size="13" lengthAdjust="spacing" textLength="49" x="374" y="438.3495">replicas</text></g><!--reverse link atomic to quark--><g id="link_atomic_quark"><path codeLine="111" d="M235.6386,313.6763 C222.6086,332.0263 217.2,339.65 202.83,359.87 " fill="none" id="atomic-backto-quark" style="stroke:#000000;stroke-width:1.0;"/><polygon fill="none" points="246.06,299,230.7465,310.2025,240.5307,317.1501,246.06,299" style="stroke:#000000;stroke-width:1.0;"/></g><!--link quark to file--><g id="link_quark_file"><path codeLine="113" d="M250.6061,482.3187 C280.7861,504.1287 300.0065,500.7057 327.5365,520.5957 " fill="none" id="quark-file" style="stroke:#000000;stroke-width:1.0;"/><polygon fill="none" points="240.88,475.29,243.4002,482.0464,250.6061,482.3187,248.086,475.5623,240.88,475.29" style="stroke:#000000;stroke-width:1.0;"/><polygon fill="#000000" points="332.4,524.1095,327.4473,515.5965,328.3471,521.1813,322.7623,522.0811,332.4,524.1095" style="stroke:#000000;stroke-width:1.0;"/></g><!--link Variable to Field--><g id="link_Variable_Field"><path codeLine="115" d="M850.5,96.51 C850.5,127.59 850.5,169.42 850.5,203.29 " fill="none" id="Variable-to-Field" style="stroke:#000000;stroke-width:1.0;stroke-dasharray:7.0,7.0;"/><polygon fill="#000000" points="850.5,209.29,854.5,200.29,850.5,204.29,846.5,200.29,850.5,209.29" style="stroke:#000000;stroke-width:1.0;"/></g><!--link AgFile to Variable--><g id="link_AgFile_Variable"><path codeLine="117" d="M634.67,44.43 C659.15,43.61 683.93,43.72 707.5,45.29 C724.75,46.43 709.1464,47.615 726.7264,49.815 " fill="none" id="AgFile-to-Variable" style="stroke:#000000;stroke-width:1.0;stroke-dasharray:7.0,7.0;"/><polygon fill="#000000" points="732.68,50.56,724.2464,45.4734,727.7187,49.9391,723.253,53.4115,732.68,50.56" style="stroke:#000000;stroke-width:1.0;"/><text fill="#000000" font-family="sans-serif" font-size="13" lengthAdjust="spacing" textLength="54" x="652.5" y="40.8584">contains</text></g><rect fill="#FFFFFF" height="17.3105" style="stroke:#000000;stroke-width:0.5;" width="30" x="294.96" y="201.7895"/><text fill="#000000" font-family="sans-serif" font-size="13" lengthAdjust="spacing" textLength="26" x="296.96" y="215.3578">1..N</text><rect fill="#FFFFFF" height="17.3105" style="stroke:#000000;stroke-width:0.5;" width="30" x="397.5033" y="524.6395"/><text fill="#000000" font-family="sans-serif" font-size="13" lengthAdjust="spacing" textLength="26" x="399.5033" y="538.2078">1..N</text><rect fill="#FFFFFF" height="17.3105" style="stroke:#000000;stroke-width:0.5;" width="14" x="373.5033" y="524.5295"/><text fill="#000000" font-family="sans-serif" font-size="13" lengthAdjust="spacing" textLength="10" x="375.5033" y="538.0978">N</text><rect fill="#FFFFFF" height="17.3105" style="stroke:#000000;stroke-width:0.5;" width="52" x="304.8133" y="524.6095"/><text fill="#000000" font-family="sans-serif" font-size="13" lengthAdjust="spacing" textLength="48" x="306.8133" y="538.1778">m &lt;= n</text><rect fill="#FFFFFF" height="17.3105" style="stroke:#000000;stroke-width:0.5;" width="28" x="733.18" y="41.9047"/><text fill="#000000" font-family="sans-serif" font-size="13" lengthAdjust="spacing" textLength="24" x="735.18" y="55.4731">1..V</text><!--SRC=[rLNBRjiw4DthAmRUtAI9ZHReAl0D4CamsaM2jkbZSMyN53MsYL2aIj9frJJ_tk73bEouQBVrmhOuPsREd1cEx9rG7JEi1IwPjIkjd7MzHAYrR0gxRwqPlriRlLKDrr8R-BGH3f-0j6dGH40foMC4OCRehz5K7vWCKtSMEtZvV7HuensMEMbrD6d0X9pLqPn3NU8xmekN8vCYLuVV79DYhLfK3ZXzeHb1AkzzIA4Lod63P3xCiq56H0vrif8vN1lieJXqOCuPKMyT2gvLOFZy6FSOv-inlIqHHktw3dyDz8KUaegOFmDjH8E0RUTwQD5jT6F7Hxc6TCg5uPAy_hb1RC1j41vM0cNpw5Cm9xG2fq7Vep4UBhpadS5aOZRbeEIee3P42Pq5GbZgJb64gc5ojIP5rz5dAIHElEVLsl-5-Tp_N5x2Gm7qESi4AasJ8XIrmyAAwji58PuBtJAXuEHgUarK6kROwRvpfTkMSfsKqrFFC41WPJIDjTEjuE0FB56T5Oz5iI994IRL4Zvf8vi949SGBz9V-f34irfEAwquTYwp3KdfF18QZZuo8rXDmlgdnr6iXISodxFQEXBBmLuakXwaC2nAo4UwlXTwQsMV8er3HH5-oIj7U-ewUMDqXyO9jA4LvJMLF2GTUd3B1L9a4l8K1fyCF7c7gTNKb93hT9TiNFHxqM9ckoYFgmYb7sKxEgYOHDKmSmuVb71ZoorhEodK6bxxURndCjjsnCyov3tTDZXnH84sXfHfO1DFkkGZdhSTZIYJlwTwu-TbzFpjl3__3WtbeBr0ks5CDSQ4okU-JXSoQHG-VySLoJIZRH5jWMI2p-VyGAkp4RyXXUsO8hQ6hVqMjmdvMd6vRQYCSfgHF3Aa_JEW7tT4tcwPkTlZyIMS7AFnYaR0q6AlWN6ZoLih1Fzkq0OFktO6LzIed11el6dnqUj6gyAxMQV9HkjKOdWBKHX5gnERWjHkaKBsdZ6vQNcFG5KmoRSoD3OecVWlKuP0VNMqo- -6r7kCTnHiJ- -Jzec2GJkc6jhWfgN9i-aExtGTIEosrF5HptSx3gLUKJ5XTC8yfD7Kq-ab_FTYDhlv7AguW4uBhvlJEyW84KVbWZfBKGKfNgJX8KZOiXUXE2g25N7hFlFUlilfEUGhh_UiSVUcWG-0OU7i7U_TxvmxrP0BcBIiXnh_L-rMEj59-cUGTWbdTfATvZ-cqpXnHH47BqPfOVulg1YgABB0iragC0itYw9y_9oxC9Rb9m00]--></g></svg>