<svg xmlns="http://www.w3.org/2000/svg" xmlns:xlink="http://www.w3.org/1999/xlink" contentStyleType="text/css" height="1355px" preserveAspectRatio="none" style="width:728px;height:1355px;background:#FFFFFF;" version="1.1" viewBox="0 0 728 1355" width="728px" zoomAndPan="magnify"><defs/><g><rect fill="none" height="20.9531" style="stroke:none;stroke-width:1.0;" width="695.0562" x="15" y="12.7451"/><rect fill="#F1F1F1" height="33.9688" rx="12.5" ry="12.5" style="stroke:#181818;stroke-width:0.5;" width="144.4297" x="65.2432" y="414.7764"/><text fill="#000000" font-family="sans-serif" font-size="12" lengthAdjust="spacing" textLength="116.8008" x="79.0576" y="435.915">acquire manifest(s)</text><rect fill="none" height="82.2656" style="stroke:#000000;stroke-width:1.5;" width="197.5059" x="38.7051" y="458.7451"/><path d="M114.3916,458.7451 L114.3916,468.042 L104.3916,478.042 L38.7051,478.042 " fill="none" style="stroke:#000000;stroke-width:1.5;"/><text fill="#000000" font-family="sans-serif" font-size="14" lengthAdjust="spacing" textLength="65.6865" x="41.7051" y="472.7402">cf-move0</text><rect fill="#F1F1F1" height="33.9688" rx="12.5" ry="12.5" style="stroke:#181818;stroke-width:0.5;" width="177.5059" x="48.7051" y="495.042"/><text fill="#000000" font-family="sans-serif" font-size="12" lengthAdjust="spacing" textLength="149.877" x="62.5195" y="516.1807">estimate volume needed</text><rect fill="#F1F1F1" height="33.9688" rx="12.5" ry="12.5" style="stroke:#181818;stroke-width:0.5;" width="144.4297" x="65.2432" y="717.3506"/><text fill="#000000" font-family="sans-serif" font-size="12" lengthAdjust="spacing" textLength="116.8008" x="79.0576" y="738.4893">acquire manifest(s)</text><rect fill="none" height="136.2344" style="stroke:#000000;stroke-width:1.5;" width="124.3047" x="75.3057" y="761.3193"/><path d="M150.9922,761.3193 L150.9922,770.6162 L140.9922,780.6162 L75.3057,780.6162 " fill="none" style="stroke:#000000;stroke-width:1.5;"/><text fill="#000000" font-family="sans-serif" font-size="14" lengthAdjust="spacing" textLength="65.6865" x="78.3057" y="775.3145">cfmove-1</text><rect fill="#F1F1F1" height="33.9688" rx="12.5" ry="12.5" style="stroke:#181818;stroke-width:0.5;" width="104.3047" x="85.3057" y="797.6162"/><text fill="#000000" font-family="sans-serif" font-size="12" lengthAdjust="spacing" textLength="76.6758" x="99.1201" y="818.7549">remove data</text><rect fill="#F1F1F1" height="33.9688" rx="12.5" ry="12.5" style="stroke:#181818;stroke-width:0.5;" width="88.959" x="92.9785" y="851.585"/><text fill="#000000" font-family="sans-serif" font-size="12" lengthAdjust="spacing" textLength="61.3301" x="106.793" y="872.7236">update db</text><polygon fill="#F1F1F1" points="117.0828,561.0107,157.8333,561.0107,169.8333,573.0107,157.8333,585.0107,117.0828,585.0107,105.0828,573.0107,117.0828,561.0107" style="stroke:#181818;stroke-width:0.5;"/><text fill="#000000" font-family="sans-serif" font-size="11" lengthAdjust="spacing" textLength="51.9761" x="141.458" y="595.2212">too much</text><text fill="#000000" font-family="sans-serif" font-size="11" lengthAdjust="spacing" textLength="40.7505" x="117.0828" y="576.8188">volume</text><polygon fill="#F1F1F1" points="137.458,1025.4912,149.458,1037.4912,137.458,1049.4912,125.458,1037.4912,137.458,1025.4912" style="stroke:#181818;stroke-width:0.5;"/><rect fill="none" height="136.2344" style="stroke:#000000;stroke-width:1.5;" width="136.9785" x="68.9688" y="1059.4912"/><path d="M144.6553,1059.4912 L144.6553,1068.7881 L134.6553,1078.7881 L68.9688,1078.7881 " fill="none" style="stroke:#000000;stroke-width:1.5;"/><text fill="#000000" font-family="sans-serif" font-size="14" lengthAdjust="spacing" textLength="65.6865" x="71.9688" y="1073.4863">cfmove-2</text><rect fill="#F1F1F1" height="33.9688" rx="12.5" ry="12.5" style="stroke:#181818;stroke-width:0.5;" width="116.9785" x="78.9688" y="1095.7881"/><text fill="#000000" font-family="sans-serif" font-size="12" lengthAdjust="spacing" textLength="89.3496" x="92.7832" y="1116.9268">acquire quarks</text><rect fill="#F1F1F1" height="33.9688" rx="12.5" ry="12.5" style="stroke:#181818;stroke-width:0.5;" width="85.1445" x="94.8857" y="1149.7568"/><text fill="#000000" font-family="sans-serif" font-size="12" lengthAdjust="spacing" textLength="61.3301" x="108.7002" y="1170.8955">update db</text><line style="stroke:#000000;stroke-width:1.5;" x1="15" x2="15" y1="12.7451" y2="1343.6631"/><rect fill="#F1F1F1" height="33.9688" rx="12.5" ry="12.5" style="stroke:#181818;stroke-width:0.5;" width="122.375" x="307.3799" y="38.6982"/><text fill="#000000" font-family="sans-serif" font-size="12" lengthAdjust="spacing" textLength="94.7461" x="321.1943" y="59.8369">choose variable</text><rect fill="#F1F1F1" height="47.9375" rx="12.5" ry="12.5" style="stroke:#181818;stroke-width:0.5;" width="151.2207" x="292.957" y="92.667"/><text fill="#000000" font-family="sans-serif" font-size="12" lengthAdjust="spacing" textLength="109.6289" x="306.7715" y="113.8057">visualise locations</text><text fill="#000000" font-family="sans-serif" font-size="12" lengthAdjust="spacing" textLength="131.2207" x="302.957" y="127.7744">(ADS and any quarks)</text><rect fill="#F1F1F1" height="33.9688" rx="12.5" ry="12.5" style="stroke:#181818;stroke-width:0.5;" width="244.7129" x="246.2109" y="160.6045"/><text fill="#000000" font-family="sans-serif" font-size="12" lengthAdjust="spacing" textLength="220.8984" x="260.0254" y="181.7432">identify new quark subset(s) by time</text><rect fill="#F1F1F1" height="33.9688" rx="12.5" ry="12.5" style="stroke:#181818;stroke-width:0.5;" width="182.9668" x="277.084" y="609.4131"/><text fill="#000000" font-family="sans-serif" font-size="12" lengthAdjust="spacing" textLength="155.3379" x="290.8984" y="630.5518">identify quarks to remove</text><rect fill="#F1F1F1" height="33.9688" rx="12.5" ry="12.5" style="stroke:#181818;stroke-width:0.5;" width="179.8145" x="278.6602" y="971.5225"/><text fill="#000000" font-family="sans-serif" font-size="12" lengthAdjust="spacing" textLength="152.1855" x="292.4746" y="992.6611">update variable locations</text><rect fill="#F1F1F1" height="33.9688" rx="12.5" ry="12.5" style="stroke:#181818;stroke-width:0.5;" width="179.8145" x="278.6602" y="1269.6943"/><text fill="#000000" font-family="sans-serif" font-size="12" lengthAdjust="spacing" textLength="152.1855" x="292.4746" y="1290.833">update variable locations</text><ellipse cx="368.5674" cy="1333.6631" fill="none" rx="10" ry="10" style="stroke:#222222;stroke-width:1.5;"/><line style="stroke:#222222;stroke-width:2.5;" x1="362.3802" x2="374.7546" y1="1327.4759" y2="1339.8503"/><line style="stroke:#222222;stroke-width:2.5;" x1="374.7546" x2="362.3802" y1="1327.4759" y2="1339.8503"/><line style="stroke:#000000;stroke-width:1.5;" x1="240.2109" x2="240.2109" y1="12.7451" y2="1343.6631"/><rect fill="none" height="190.2031" style="stroke:#000000;stroke-width:1.5;" width="203.2715" x="500.9238" y="204.5732"/><path d="M628.4473,204.5732 L628.4473,213.8701 L618.4473,223.8701 L500.9238,223.8701 " fill="none" style="stroke:#000000;stroke-width:1.5;"/><text fill="#000000" font-family="sans-serif" font-size="14" lengthAdjust="spacing" textLength="117.5234" x="503.9238" y="218.5684">loop over quarks</text><rect fill="#F1F1F1" height="33.9688" rx="12.5" ry="12.5" style="stroke:#181818;stroke-width:0.5;" width="183.2715" x="510.9238" y="240.8701"/><text fill="#000000" font-family="sans-serif" font-size="12" lengthAdjust="spacing" textLength="155.6426" x="524.7383" y="262.0088">identify atomic parent file</text><rect fill="#F1F1F1" height="33.9688" rx="12.5" ry="12.5" style="stroke:#181818;stroke-width:0.5;" width="176.7852" x="514.167" y="294.8389"/><text fill="#000000" font-family="sans-serif" font-size="12" lengthAdjust="spacing" textLength="149.1563" x="527.9814" y="315.9775">identify quark fragments</text><rect fill="#F1F1F1" height="33.9688" rx="12.5" ry="12.5" style="stroke:#181818;stroke-width:0.5;" width="138.3535" x="533.3828" y="348.8076"/><text fill="#000000" font-family="sans-serif" font-size="12" lengthAdjust="spacing" textLength="110.7246" x="547.1973" y="369.9463">generate manifest</text><rect fill="#F1F1F1" height="33.9688" rx="12.5" ry="12.5" style="stroke:#181818;stroke-width:0.5;" width="128.3633" x="538.3779" y="663.3818"/><text fill="#000000" font-family="sans-serif" font-size="12" lengthAdjust="spacing" textLength="100.7344" x="552.1924" y="684.5205">loop over quarks</text><rect fill="#F1F1F1" height="33.9688" rx="12.5" ry="12.5" style="stroke:#181818;stroke-width:0.5;" width="186.916" x="509.1016" y="917.5537"/><text fill="#000000" font-family="sans-serif" font-size="12" lengthAdjust="spacing" textLength="159.2871" x="522.916" y="938.6924">update fragment locations</text><rect fill="#F1F1F1" height="33.9688" rx="12.5" ry="12.5" style="stroke:#181818;stroke-width:0.5;" width="186.916" x="509.1016" y="1215.7256"/><text fill="#000000" font-family="sans-serif" font-size="12" lengthAdjust="spacing" textLength="159.2871" x="522.916" y="1236.8643">update fragment locations</text><line style="stroke:#000000;stroke-width:1.5;" x1="494.9238" x2="494.9238" y1="12.7451" y2="1343.6631"/><line style="stroke:#000000;stroke-width:1.5;" x1="708.1953" x2="708.1953" y1="12.7451" y2="1343.6631"/><line style="stroke:#181818;stroke-width:1.0;" x1="137.458" x2="137.458" y1="448.7451" y2="495.042"/><polygon fill="#181818" points="133.458,485.042,137.458,495.042,141.458,485.042,137.458,489.042" style="stroke:#181818;stroke-width:1.0;"/><line style="stroke:#181818;stroke-width:1.0;" x1="137.458" x2="137.458" y1="831.585" y2="851.585"/><polygon fill="#181818" points="133.458,841.585,137.458,851.585,141.458,841.585,137.458,845.585" style="stroke:#181818;stroke-width:1.0;"/><line style="stroke:#181818;stroke-width:1.0;" x1="137.458" x2="137.458" y1="751.3193" y2="797.6162"/><polygon fill="#181818" points="133.458,787.6162,137.458,797.6162,141.458,787.6162,137.458,791.6162" style="stroke:#181818;stroke-width:1.0;"/><line style="stroke:#181818;stroke-width:1.0;" x1="105.0828" x2="34" y1="573.0107" y2="573.0107"/><polygon fill="#181818" points="30,796.4521,34,806.4521,38,796.4521,34,800.4521" style="stroke:#181818;stroke-width:1.0;"/><line style="stroke:#181818;stroke-width:1.0;" x1="34" x2="34" y1="573.0107" y2="1037.4912"/><line style="stroke:#181818;stroke-width:1.0;" x1="34" x2="125.458" y1="1037.4912" y2="1037.4912"/><polygon fill="#181818" points="115.458,1033.4912,125.458,1037.4912,115.458,1041.4912,119.458,1037.4912" style="stroke:#181818;stroke-width:1.0;"/><line style="stroke:#181818;stroke-width:1.0;" x1="137.458" x2="137.458" y1="529.0107" y2="561.0107"/><polygon fill="#181818" points="133.458,551.0107,137.458,561.0107,141.458,551.0107,137.458,555.0107" style="stroke:#181818;stroke-width:1.0;"/><line style="stroke:#181818;stroke-width:1.0;" x1="137.458" x2="137.458" y1="1129.7568" y2="1149.7568"/><polygon fill="#181818" points="133.458,1139.7568,137.458,1149.7568,141.458,1139.7568,137.458,1143.7568" style="stroke:#181818;stroke-width:1.0;"/><line style="stroke:#181818;stroke-width:1.0;" x1="137.458" x2="137.458" y1="1049.4912" y2="1095.7881"/><polygon fill="#181818" points="133.458,1085.7881,137.458,1095.7881,141.458,1085.7881,137.458,1089.7881" style="stroke:#181818;stroke-width:1.0;"/><line style="stroke:#181818;stroke-width:1.0;" x1="368.5674" x2="368.5674" y1="72.667" y2="92.667"/><polygon fill="#181818" points="364.5674,82.667,368.5674,92.667,372.5674,82.667,368.5674,86.667" style="stroke:#181818;stroke-width:1.0;"/><line style="stroke:#181818;stroke-width:1.0;" x1="368.5674" x2="368.5674" y1="140.6045" y2="160.6045"/><polygon fill="#181818" points="364.5674,150.6045,368.5674,160.6045,372.5674,150.6045,368.5674,154.6045" style="stroke:#181818;stroke-width:1.0;"/><line style="stroke:#181818;stroke-width:1.0;" x1="368.5674" x2="368.5674" y1="1303.6631" y2="1323.6631"/><polygon fill="#181818" points="364.5674,1313.6631,368.5674,1323.6631,372.5674,1313.6631,368.5674,1317.6631" style="stroke:#181818;stroke-width:1.0;"/><line style="stroke:#181818;stroke-width:1.0;" x1="602.5596" x2="602.5596" y1="274.8389" y2="294.8389"/><polygon fill="#181818" points="598.5596,284.8389,602.5596,294.8389,606.5596,284.8389,602.5596,288.8389" style="stroke:#181818;stroke-width:1.0;"/><line style="stroke:#181818;stroke-width:1.0;" x1="602.5596" x2="602.5596" y1="328.8076" y2="348.8076"/><polygon fill="#181818" points="598.5596,338.8076,602.5596,348.8076,606.5596,338.8076,602.5596,342.8076" style="stroke:#181818;stroke-width:1.0;"/><line style="stroke:#181818;stroke-width:1.0;" x1="368.5674" x2="368.5674" y1="194.5732" y2="205.2217"/><line style="stroke:#181818;stroke-width:1.0;" x1="368.5674" x2="602.5596" y1="205.2217" y2="205.2217"/><line style="stroke:#181818;stroke-width:1.0;" x1="602.5596" x2="602.5596" y1="205.2217" y2="240.8701"/><polygon fill="#181818" points="598.5596,230.8701,602.5596,240.8701,606.5596,230.8701,602.5596,234.8701" style="stroke:#181818;stroke-width:1.0;"/><line style="stroke:#181818;stroke-width:1.0;" x1="602.5596" x2="602.5596" y1="382.7764" y2="399.7764"/><line style="stroke:#181818;stroke-width:1.0;" x1="602.5596" x2="137.458" y1="399.7764" y2="399.7764"/><line style="stroke:#181818;stroke-width:1.0;" x1="137.458" x2="137.458" y1="399.7764" y2="414.7764"/><polygon fill="#181818" points="133.458,404.7764,137.458,414.7764,141.458,404.7764,137.458,408.7764" style="stroke:#181818;stroke-width:1.0;"/><line style="stroke:#181818;stroke-width:1.0;" x1="368.5674" x2="368.5674" y1="643.3818" y2="648.3818"/><line style="stroke:#181818;stroke-width:1.0;" x1="368.5674" x2="602.5596" y1="648.3818" y2="648.3818"/><line style="stroke:#181818;stroke-width:1.0;" x1="602.5596" x2="602.5596" y1="648.3818" y2="663.3818"/><polygon fill="#181818" points="598.5596,653.3818,602.5596,663.3818,606.5596,653.3818,602.5596,657.3818" style="stroke:#181818;stroke-width:1.0;"/><line style="stroke:#181818;stroke-width:1.0;" x1="602.5596" x2="602.5596" y1="697.3506" y2="702.3506"/><line style="stroke:#181818;stroke-width:1.0;" x1="602.5596" x2="137.458" y1="702.3506" y2="702.3506"/><line style="stroke:#181818;stroke-width:1.0;" x1="137.458" x2="137.458" y1="702.3506" y2="717.3506"/><polygon fill="#181818" points="133.458,707.3506,137.458,717.3506,141.458,707.3506,137.458,711.3506" style="stroke:#181818;stroke-width:1.0;"/><line style="stroke:#181818;stroke-width:1.0;" x1="137.458" x2="137.458" y1="885.5537" y2="902.5537"/><line style="stroke:#181818;stroke-width:1.0;" x1="137.458" x2="602.5596" y1="902.5537" y2="902.5537"/><line style="stroke:#181818;stroke-width:1.0;" x1="602.5596" x2="602.5596" y1="902.5537" y2="917.5537"/><polygon fill="#181818" points="598.5596,907.5537,602.5596,917.5537,606.5596,907.5537,602.5596,911.5537" style="stroke:#181818;stroke-width:1.0;"/><line style="stroke:#181818;stroke-width:1.0;" x1="602.5596" x2="602.5596" y1="951.5225" y2="956.5225"/><line style="stroke:#181818;stroke-width:1.0;" x1="602.5596" x2="368.5674" y1="956.5225" y2="956.5225"/><line style="stroke:#181818;stroke-width:1.0;" x1="368.5674" x2="368.5674" y1="956.5225" y2="971.5225"/><polygon fill="#181818" points="364.5674,961.5225,368.5674,971.5225,372.5674,961.5225,368.5674,965.5225" style="stroke:#181818;stroke-width:1.0;"/><line style="stroke:#181818;stroke-width:1.0;" x1="137.458" x2="137.458" y1="585.0107" y2="597.2119"/><line style="stroke:#181818;stroke-width:1.0;" x1="137.458" x2="368.5674" y1="597.2119" y2="597.2119"/><line style="stroke:#181818;stroke-width:1.0;" x1="368.5674" x2="368.5674" y1="597.2119" y2="609.4131"/><polygon fill="#181818" points="364.5674,599.4131,368.5674,609.4131,372.5674,599.4131,368.5674,603.4131" style="stroke:#181818;stroke-width:1.0;"/><line style="stroke:#181818;stroke-width:1.0;" x1="368.5674" x2="368.5674" y1="1005.4912" y2="1013.29"/><line style="stroke:#181818;stroke-width:1.0;" x1="368.5674" x2="137.458" y1="1013.29" y2="1013.29"/><line style="stroke:#181818;stroke-width:1.0;" x1="137.458" x2="137.458" y1="1013.29" y2="1025.4912"/><polygon fill="#181818" points="133.458,1015.4912,137.458,1025.4912,141.458,1015.4912,137.458,1019.4912" style="stroke:#181818;stroke-width:1.0;"/><line style="stroke:#181818;stroke-width:1.0;" x1="137.458" x2="137.458" y1="1183.7256" y2="1200.7256"/><line style="stroke:#181818;stroke-width:1.0;" x1="137.458" x2="602.5596" y1="1200.7256" y2="1200.7256"/><line style="stroke:#181818;stroke-width:1.0;" x1="602.5596" x2="602.5596" y1="1200.7256" y2="1215.7256"/><polygon fill="#181818" points="598.5596,1205.7256,602.5596,1215.7256,606.5596,1205.7256,602.5596,1209.7256" style="stroke:#181818;stroke-width:1.0;"/><line style="stroke:#181818;stroke-width:1.0;" x1="602.5596" x2="602.5596" y1="1249.6943" y2="1254.6943"/><line style="stroke:#181818;stroke-width:1.0;" x1="602.5596" x2="368.5674" y1="1254.6943" y2="1254.6943"/><line style="stroke:#181818;stroke-width:1.0;" x1="368.5674" x2="368.5674" y1="1254.6943" y2="1269.6943"/><polygon fill="#181818" points="364.5674,1259.6943,368.5674,1269.6943,372.5674,1259.6943,368.5674,1263.6943" style="stroke:#181818;stroke-width:1.0;"/><text fill="#000000" font-family="sans-serif" font-size="18" lengthAdjust="spacing" textLength="35.5254" x="109.8428" y="29.4531">gws</text><text fill="#000000" font-family="sans-serif" font-size="18" lengthAdjust="spacing" textLength="27.835" x="353.6499" y="29.4531">gui</text><text fill="#000000" font-family="sans-serif" font-size="18" lengthAdjust="spacing" textLength="22.8516" x="590.1338" y="29.4531">db</text><!--SRC=[hP8zRiCm38NtdeAZFGHeCyPJWTwWQnVQecoYbfJenu7HzEwLPDbnaQb01qFm8_7uyKatwAyERaytw0FdKxIxtnDqWp6EO4BBs8u4JTGcTW57Zl9eElHijFlGrUlREw0MyPlX4j1-kZerio3jMSwWwRheu4Bho5UkXdO6pugQTUuPhUTa69tD6Sn4jdZ1rzuBlL7SGMoF0aWkO5jzcICjzYegBXTxqcJH4oZKBCdvg7wdJNC09y3k4jZUouclsH5ryg0Yq7CcYNLMoMmoOr0KboD18ZkoX6fHQ_03QQYyCQ12DzIxN7-ZEl06B2L_sC8uFORG_8atsHrUCc_n5kWnXn7E8j77EKi8PM2Hr-3kzxjCBkobQtiJ-oxIWkL6-K1pp3Gh-hRL3kZ_UNu0]--></g></svg>